<svg width="507" height="197" viewBox="0 0 507 197" fill="none" xmlns="http://www.w3.org/2000/svg">
<path d="M235.224 104V102.528C236.376 102.485 237.272 102.357 237.912 102.144C238.595 101.931 239.064 101.483 239.32 100.8C239.576 100.117 239.704 99.0507 239.704 97.6V67.84C239.704 66.3467 239.533 65.28 239.192 64.64C238.893 63.9573 238.317 63.5093 237.464 63.296C236.611 63.0827 235.331 62.9547 233.624 62.912V61.44H249.624V62.912C248.472 62.9547 247.576 63.0827 246.936 63.296C246.296 63.5093 245.827 63.9573 245.528 64.64C245.272 65.28 245.144 66.3467 245.144 67.84V79.04C245.485 78.784 245.891 78.6133 246.36 78.528C246.872 78.4427 247.469 78.4 248.152 78.4H265.048C266.2 78.4 267.011 78.208 267.48 77.824C267.949 77.44 268.184 76.672 268.184 75.52V67.84C268.184 66.3467 268.013 65.28 267.672 64.64C267.373 63.9573 266.797 63.5093 265.944 63.296C265.091 63.0827 263.811 62.9547 262.104 62.912V61.44H278.104V62.912C276.952 62.9547 276.056 63.0827 275.416 63.296C274.776 63.5093 274.307 63.9573 274.008 64.64C273.752 65.28 273.624 66.3467 273.624 67.84V97.6C273.624 99.0507 273.773 100.117 274.072 100.8C274.371 101.483 274.947 101.931 275.8 102.144C276.696 102.357 277.976 102.485 279.64 102.528V104H263.704V102.528C264.856 102.485 265.752 102.357 266.392 102.144C267.075 101.931 267.544 101.483 267.8 100.8C268.056 100.117 268.184 99.0507 268.184 97.6V80C267.843 80.2987 267.416 80.4907 266.904 80.576C266.392 80.6613 265.816 80.704 265.176 80.704H248.28C247.128 80.704 246.317 80.896 245.848 81.28C245.379 81.664 245.144 82.4107 245.144 83.52V97.6C245.144 99.0507 245.293 100.117 245.592 100.8C245.933 101.483 246.531 101.931 247.384 102.144C248.237 102.357 249.496 102.485 251.16 102.528V104H235.224Z" fill="#D74250" style="fill:#D74250;fill:color(display-p3 0.8431 0.2588 0.3137);fill-opacity:1;"/>
<path d="M322.122 97.6C322.634 99.0933 323.125 100.181 323.594 100.864C324.063 101.504 324.618 101.931 325.258 102.144C325.941 102.315 326.837 102.443 327.946 102.528V104H312.65V102.528C314.101 102.443 315.167 102.293 315.85 102.08C316.575 101.867 316.981 101.419 317.066 100.736C317.151 100.053 316.938 99.008 316.426 97.6L312.778 86.592C312.565 86.8053 312.245 86.9547 311.818 87.04C311.391 87.0827 310.943 87.104 310.474 87.104H302.09C301.151 87.104 300.447 87.2107 299.978 87.424C299.509 87.6373 299.103 88.2133 298.762 89.152L295.754 97.6C295.199 99.2213 295.199 100.437 295.754 101.248C296.351 102.016 298.015 102.443 300.746 102.528V104H287.498V102.528C288.863 102.443 289.93 102.016 290.698 101.248C291.509 100.437 292.213 99.2213 292.81 97.6L304.138 66.496C304.565 65.3867 304.97 64.2987 305.354 63.232C305.738 62.1653 306.079 61.0773 306.378 59.968H309.514C309.813 61.0773 310.133 62.1653 310.474 63.232C310.858 64.2987 311.263 65.3867 311.69 66.496L322.122 97.6ZM310.602 84.8C311.157 84.8 311.541 84.736 311.754 84.608C311.967 84.4373 311.967 84.096 311.754 83.584L306.506 68.032H306.378L300.234 84.992C300.447 84.9067 300.703 84.864 301.002 84.864C301.301 84.8213 301.642 84.8 302.026 84.8H310.602Z" fill="#D74250" style="fill:#D74250;fill:color(display-p3 0.8431 0.2588 0.3137);fill-opacity:1;"/>
<path d="M348.508 104.96C347.313 104.96 345.991 104.811 344.54 104.512C343.089 104.256 341.703 103.829 340.38 103.232C339.1 102.635 338.033 101.824 337.18 100.8C336.369 99.7333 335.964 98.432 335.964 96.896C335.964 96.0427 336.071 95.1467 336.284 94.208C336.497 93.2693 336.775 92.5013 337.116 91.904H338.588C338.759 95.1467 339.825 97.7067 341.788 99.584C343.751 101.461 346.247 102.4 349.276 102.4C351.367 102.4 353.031 102.016 354.268 101.248C355.548 100.48 356.465 99.4987 357.02 98.304C357.617 97.0667 357.916 95.7653 357.916 94.4C357.916 92.4373 357.425 90.8373 356.444 89.6C355.463 88.32 354.183 87.2533 352.604 86.4C351.068 85.504 349.425 84.672 347.676 83.904C345.969 83.0933 344.327 82.1973 342.748 81.216C341.212 80.2347 339.953 79.0187 338.972 77.568C337.991 76.1173 337.5 74.2827 337.5 72.064C337.5 69.76 338.076 67.7547 339.228 66.048C340.38 64.2987 342.001 62.9333 344.092 61.952C346.183 60.9707 348.636 60.48 351.452 60.48C353.927 60.48 355.953 60.672 357.532 61.056C359.153 61.44 360.455 61.824 361.436 62.208V71.488H359.964C359.708 68.7573 358.897 66.6667 357.532 65.216C356.167 63.7653 353.991 63.04 351.004 63.04C348.913 63.04 347.207 63.3813 345.884 64.064C344.604 64.704 343.665 65.5573 343.068 66.624C342.513 67.648 342.236 68.736 342.236 69.888C342.236 71.5947 342.727 73.0027 343.708 74.112C344.689 75.2213 345.948 76.1813 347.484 76.992C349.063 77.8027 350.727 78.6133 352.476 79.424C354.268 80.2347 355.932 81.1733 357.468 82.24C359.047 83.3067 360.327 84.6293 361.308 86.208C362.289 87.7867 362.78 89.792 362.78 92.224C362.78 94.8693 362.161 97.152 360.924 99.072C359.729 100.949 358.044 102.4 355.868 103.424C353.735 104.448 351.281 104.96 348.508 104.96Z" fill="#D74250" style="fill:#D74250;fill:color(display-p3 0.8431 0.2588 0.3137);fill-opacity:1;"/>
<path d="M388.753 104.96C387.558 104.96 386.236 104.811 384.785 104.512C383.334 104.256 381.948 103.829 380.625 103.232C379.345 102.635 378.278 101.824 377.425 100.8C376.614 99.7333 376.209 98.432 376.209 96.896C376.209 96.0427 376.316 95.1467 376.529 94.208C376.742 93.2693 377.02 92.5013 377.361 91.904H378.833C379.004 95.1467 380.07 97.7067 382.033 99.584C383.996 101.461 386.492 102.4 389.521 102.4C391.612 102.4 393.276 102.016 394.513 101.248C395.793 100.48 396.71 99.4987 397.265 98.304C397.862 97.0667 398.161 95.7653 398.161 94.4C398.161 92.4373 397.67 90.8373 396.689 89.6C395.708 88.32 394.428 87.2533 392.849 86.4C391.313 85.504 389.67 84.672 387.921 83.904C386.214 83.0933 384.572 82.1973 382.993 81.216C381.457 80.2347 380.198 79.0187 379.217 77.568C378.236 76.1173 377.745 74.2827 377.745 72.064C377.745 69.76 378.321 67.7547 379.473 66.048C380.625 64.2987 382.246 62.9333 384.337 61.952C386.428 60.9707 388.881 60.48 391.697 60.48C394.172 60.48 396.198 60.672 397.777 61.056C399.398 61.44 400.7 61.824 401.681 62.208V71.488H400.209C399.953 68.7573 399.142 66.6667 397.777 65.216C396.412 63.7653 394.236 63.04 391.249 63.04C389.158 63.04 387.452 63.3813 386.129 64.064C384.849 64.704 383.91 65.5573 383.313 66.624C382.758 67.648 382.481 68.736 382.481 69.888C382.481 71.5947 382.972 73.0027 383.953 74.112C384.934 75.2213 386.193 76.1813 387.729 76.992C389.308 77.8027 390.972 78.6133 392.721 79.424C394.513 80.2347 396.177 81.1733 397.713 82.24C399.292 83.3067 400.572 84.6293 401.553 86.208C402.534 87.7867 403.025 89.792 403.025 92.224C403.025 94.8693 402.406 97.152 401.169 99.072C399.974 100.949 398.289 102.4 396.113 103.424C393.98 104.448 391.526 104.96 388.753 104.96Z" fill="#D74250" style="fill:#D74250;fill:color(display-p3 0.8431 0.2588 0.3137);fill-opacity:1;"/>
<path d="M446.232 97.6C446.744 99.0933 447.235 100.181 447.704 100.864C448.173 101.504 448.728 101.931 449.368 102.144C450.051 102.315 450.947 102.443 452.056 102.528V104H436.76V102.528C438.211 102.443 439.277 102.293 439.96 102.08C440.685 101.867 441.091 101.419 441.176 100.736C441.261 100.053 441.048 99.008 440.536 97.6L436.888 86.592C436.675 86.8053 436.355 86.9547 435.928 87.04C435.501 87.0827 435.053 87.104 434.584 87.104H426.2C425.261 87.104 424.557 87.2107 424.088 87.424C423.619 87.6373 423.213 88.2133 422.872 89.152L419.864 97.6C419.309 99.2213 419.309 100.437 419.864 101.248C420.461 102.016 422.125 102.443 424.856 102.528V104H411.608V102.528C412.973 102.443 414.04 102.016 414.808 101.248C415.619 100.437 416.323 99.2213 416.92 97.6L428.248 66.496C428.675 65.3867 429.08 64.2987 429.464 63.232C429.848 62.1653 430.189 61.0773 430.488 59.968H433.624C433.923 61.0773 434.243 62.1653 434.584 63.232C434.968 64.2987 435.373 65.3867 435.8 66.496L446.232 97.6ZM434.712 84.8C435.267 84.8 435.651 84.736 435.864 84.608C436.077 84.4373 436.077 84.096 435.864 83.584L430.616 68.032H430.488L424.344 84.992C424.557 84.9067 424.813 84.864 425.112 84.864C425.411 84.8213 425.752 84.8 426.136 84.8H434.712Z" fill="#D74250" style="fill:#D74250;fill:color(display-p3 0.8431 0.2588 0.3137);fill-opacity:1;"/>
<path d="M497.673 104.512C497.033 103.531 496.329 102.549 495.561 101.568C494.793 100.544 493.748 99.3067 492.425 97.856L469.065 71.424H468.937V97.6C468.937 99.1787 469.321 100.373 470.089 101.184C470.9 101.995 472.564 102.443 475.081 102.528V104H461.577V102.528C463.326 102.443 464.5 101.995 465.097 101.184C465.737 100.373 466.057 99.1787 466.057 97.6V67.84C466.057 66.176 465.566 64.96 464.585 64.192C463.646 63.424 462.11 62.9973 459.977 62.912V61.44H468.681C469.321 62.5067 470.004 63.552 470.729 64.576C471.497 65.6 472.329 66.6027 473.225 67.584L496.841 94.016H496.969V67.84C496.969 66.2613 496.564 65.0667 495.753 64.256C494.985 63.4453 493.342 62.9973 490.825 62.912V61.44H504.329V62.912C502.622 62.9973 501.449 63.4453 500.809 64.256C500.169 65.0667 499.849 66.2613 499.849 67.84V97.6C499.849 98.7947 499.849 99.9467 499.849 101.056C499.892 102.123 499.934 103.275 499.977 104.512H497.673Z" fill="#D74250" style="fill:#D74250;fill:color(display-p3 0.8431 0.2588 0.3137);fill-opacity:1;"/>
<path d="M239.384 145.48C238.787 145.48 238.125 145.405 237.4 145.256C236.675 145.128 235.981 144.915 235.32 144.616C234.68 144.317 234.147 143.912 233.72 143.4C233.315 142.867 233.112 142.216 233.112 141.448C233.112 141.021 233.165 140.573 233.272 140.104C233.379 139.635 233.517 139.251 233.688 138.952H234.424C234.509 140.573 235.043 141.853 236.024 142.792C237.005 143.731 238.253 144.2 239.768 144.2C240.813 144.2 241.645 144.008 242.264 143.624C242.904 143.24 243.363 142.749 243.64 142.152C243.939 141.533 244.088 140.883 244.088 140.2C244.088 139.219 243.843 138.419 243.352 137.8C242.861 137.16 242.221 136.627 241.432 136.2C240.664 135.752 239.843 135.336 238.968 134.952C238.115 134.547 237.293 134.099 236.504 133.608C235.736 133.117 235.107 132.509 234.616 131.784C234.125 131.059 233.88 130.141 233.88 129.032C233.88 127.88 234.168 126.877 234.744 126.024C235.32 125.149 236.131 124.467 237.176 123.976C238.221 123.485 239.448 123.24 240.856 123.24C242.093 123.24 243.107 123.336 243.896 123.528C244.707 123.72 245.357 123.912 245.848 124.104V128.744H245.112C244.984 127.379 244.579 126.333 243.896 125.608C243.213 124.883 242.125 124.52 240.632 124.52C239.587 124.52 238.733 124.691 238.072 125.032C237.432 125.352 236.963 125.779 236.664 126.312C236.387 126.824 236.248 127.368 236.248 127.944C236.248 128.797 236.493 129.501 236.984 130.056C237.475 130.611 238.104 131.091 238.872 131.496C239.661 131.901 240.493 132.307 241.368 132.712C242.264 133.117 243.096 133.587 243.864 134.12C244.653 134.653 245.293 135.315 245.784 136.104C246.275 136.893 246.52 137.896 246.52 139.112C246.52 140.435 246.211 141.576 245.592 142.536C244.995 143.475 244.152 144.2 243.064 144.712C241.997 145.224 240.771 145.48 239.384 145.48Z" fill="#D74250" style="fill:#D74250;fill:color(display-p3 0.8431 0.2588 0.3137);fill-opacity:1;"/>
<path d="M252.275 145V144.264C252.851 144.243 253.298 144.179 253.618 144.072C253.96 143.965 254.194 143.741 254.322 143.4C254.45 143.059 254.514 142.525 254.514 141.8V126.92C254.514 126.173 254.429 125.64 254.258 125.32C254.109 124.979 253.821 124.755 253.395 124.648C252.968 124.541 252.328 124.477 251.475 124.456V123.72H259.474V124.456C258.898 124.477 258.45 124.541 258.13 124.648C257.81 124.755 257.576 124.979 257.427 125.32C257.299 125.64 257.234 126.173 257.234 126.92V132.52C257.405 132.392 257.608 132.307 257.842 132.264C258.098 132.221 258.397 132.2 258.738 132.2H267.186C267.762 132.2 268.168 132.104 268.402 131.912C268.637 131.72 268.754 131.336 268.754 130.76V126.92C268.754 126.173 268.669 125.64 268.499 125.32C268.349 124.979 268.061 124.755 267.634 124.648C267.208 124.541 266.568 124.477 265.715 124.456V123.72H273.715V124.456C273.139 124.477 272.691 124.541 272.371 124.648C272.051 124.755 271.816 124.979 271.667 125.32C271.539 125.64 271.474 126.173 271.474 126.92V141.8C271.474 142.525 271.549 143.059 271.698 143.4C271.848 143.741 272.136 143.965 272.562 144.072C273.01 144.179 273.651 144.243 274.483 144.264V145H266.514V144.264C267.09 144.243 267.538 144.179 267.858 144.072C268.2 143.965 268.434 143.741 268.562 143.4C268.69 143.059 268.754 142.525 268.754 141.8V133C268.584 133.149 268.371 133.245 268.115 133.288C267.859 133.331 267.57 133.352 267.25 133.352H258.802C258.226 133.352 257.821 133.448 257.586 133.64C257.352 133.832 257.234 134.205 257.234 134.76V141.8C257.234 142.525 257.309 143.059 257.458 143.4C257.629 143.741 257.928 143.965 258.354 144.072C258.781 144.179 259.41 144.243 260.242 144.264V145H252.275Z" fill="#D74250" style="fill:#D74250;fill:color(display-p3 0.8431 0.2588 0.3137);fill-opacity:1;"/>
<path d="M279.5 145V144.264C280.076 144.243 280.524 144.179 280.844 144.072C281.164 143.965 281.388 143.741 281.516 143.4C281.665 143.059 281.74 142.525 281.74 141.8V126.92C281.74 126.173 281.654 125.64 281.483 125.32C281.334 124.979 281.046 124.755 280.62 124.648C280.193 124.541 279.553 124.477 278.699 124.456V123.72H293.931V128.2H293.195C293.174 127.517 293.067 126.931 292.875 126.44C292.683 125.928 292.331 125.544 291.819 125.288C291.307 125.011 290.55 124.872 289.548 124.872H285.867C285.419 124.872 285.067 124.979 284.811 125.192C284.577 125.405 284.46 125.981 284.46 126.92V132.936C284.63 132.808 284.833 132.723 285.068 132.68C285.324 132.637 285.622 132.616 285.964 132.616H290.475C291.734 132.616 292.396 131.912 292.46 130.504H293.195V135.944H292.46C292.438 135.069 292.289 134.493 292.012 134.216C291.734 133.917 291.222 133.768 290.475 133.768H286.027C285.451 133.768 285.046 133.864 284.811 134.056C284.577 134.248 284.46 134.621 284.46 135.176V141.8C284.46 142.717 284.62 143.293 284.94 143.528C285.281 143.741 285.932 143.848 286.892 143.848H291.34C292.385 143.848 293.206 143.677 293.803 143.336C294.401 142.973 294.838 142.504 295.116 141.928C295.393 141.331 295.564 140.691 295.628 140.008H296.363L296.108 145H279.5Z" fill="#D74250" style="fill:#D74250;fill:color(display-p3 0.8431 0.2588 0.3137);fill-opacity:1;"/>
<path d="M319.369 145.192C318.495 145.192 317.769 145.075 317.193 144.84C316.617 144.605 316.127 144.296 315.721 143.912C315.316 143.528 314.932 143.112 314.569 142.664L307.977 134.568C307.7 134.227 307.487 134.013 307.337 133.928C307.209 133.821 307.028 133.757 306.793 133.736V132.776C308.841 132.947 310.441 132.659 311.593 131.912C312.745 131.165 313.321 130.024 313.321 128.488C313.321 127.443 313.087 126.653 312.617 126.12C312.148 125.565 311.54 125.192 310.793 125C310.047 124.808 309.257 124.712 308.425 124.712C307.657 124.712 307.081 124.84 306.697 125.096C306.335 125.331 306.153 125.939 306.153 126.92V141.8C306.153 142.525 306.228 143.059 306.377 143.4C306.548 143.741 306.847 143.965 307.273 144.072C307.7 144.179 308.329 144.243 309.161 144.264V145H301.193V144.264C301.769 144.243 302.217 144.179 302.537 144.072C302.879 143.965 303.113 143.741 303.241 143.4C303.369 143.059 303.433 142.525 303.433 141.8V126.92C303.433 126.173 303.348 125.64 303.177 125.32C303.028 124.979 302.74 124.755 302.313 124.648C301.887 124.541 301.247 124.477 300.393 124.456V123.72H303.433C304.905 123.72 306.068 123.699 306.921 123.656C307.775 123.592 308.564 123.56 309.289 123.56C311.721 123.56 313.503 124.008 314.633 124.904C315.785 125.779 316.361 126.899 316.361 128.264C316.361 129.672 315.817 130.835 314.729 131.752C313.663 132.669 312.297 133.256 310.633 133.512V133.576L317.257 141.704C317.855 142.408 318.335 142.952 318.697 143.336C319.081 143.699 319.444 143.944 319.785 144.072C320.127 144.2 320.532 144.264 321.001 144.264V145C320.724 145.085 320.447 145.139 320.169 145.16C319.892 145.181 319.625 145.192 319.369 145.192Z" fill="#D74250" style="fill:#D74250;fill:color(display-p3 0.8431 0.2588 0.3137);fill-opacity:1;"/>
<path d="M339.151 141.8C339.407 142.547 339.652 143.091 339.887 143.432C340.122 143.752 340.399 143.965 340.719 144.072C341.06 144.157 341.508 144.221 342.063 144.264V145H334.415V144.264C335.14 144.221 335.674 144.147 336.015 144.04C336.378 143.933 336.58 143.709 336.623 143.368C336.666 143.027 336.559 142.504 336.303 141.8L334.479 136.296C334.372 136.403 334.212 136.477 333.999 136.52C333.786 136.541 333.562 136.552 333.327 136.552H329.135C328.666 136.552 328.314 136.605 328.079 136.712C327.844 136.819 327.642 137.107 327.471 137.576L325.967 141.8C325.69 142.611 325.69 143.219 325.967 143.624C326.266 144.008 327.098 144.221 328.463 144.264V145H321.839V144.264C322.522 144.221 323.055 144.008 323.439 143.624C323.844 143.219 324.196 142.611 324.495 141.8L330.159 126.248C330.372 125.693 330.575 125.149 330.767 124.616C330.959 124.083 331.13 123.539 331.279 122.984H332.847C332.996 123.539 333.156 124.083 333.327 124.616C333.519 125.149 333.722 125.693 333.935 126.248L339.151 141.8ZM333.391 135.4C333.668 135.4 333.86 135.368 333.967 135.304C334.074 135.219 334.074 135.048 333.967 134.792L331.343 127.016H331.279L328.207 135.496C328.314 135.453 328.442 135.432 328.591 135.432C328.74 135.411 328.911 135.4 329.103 135.4H333.391Z" fill="#D74250" style="fill:#D74250;fill:color(display-p3 0.8431 0.2588 0.3137);fill-opacity:1;"/>
<path d="M345.799 145V144.264C346.375 144.243 346.823 144.179 347.143 144.072C347.485 143.965 347.72 143.741 347.848 143.4C347.976 143.059 348.039 142.525 348.039 141.8V126.92C348.039 126.173 347.954 125.64 347.784 125.32C347.634 124.979 347.346 124.755 346.919 124.648C346.493 124.541 345.853 124.477 345 124.456V123.72H359.911V128.2H359.176C359.154 127.517 359.047 126.931 358.855 126.44C358.663 125.928 358.311 125.544 357.799 125.288C357.287 125.011 356.53 124.872 355.527 124.872H352.168C351.72 124.872 351.368 124.979 351.112 125.192C350.877 125.405 350.759 125.981 350.759 126.92V133.576C350.93 133.448 351.133 133.363 351.367 133.32C351.623 133.277 351.922 133.256 352.263 133.256H356.776C358.034 133.256 358.695 132.541 358.759 131.112H359.496V136.552H358.759C358.738 135.699 358.589 135.133 358.311 134.856C358.034 134.557 357.522 134.408 356.776 134.408H352.328C351.752 134.408 351.346 134.504 351.112 134.696C350.877 134.888 350.759 135.261 350.759 135.816V141.8C350.759 142.525 350.834 143.059 350.983 143.4C351.154 143.741 351.485 143.965 351.975 144.072C352.466 144.179 353.181 144.243 354.12 144.264V145H345.799Z" fill="#D74250" style="fill:#D74250;fill:color(display-p3 0.8431 0.2588 0.3137);fill-opacity:1;"/>
<path d="M379.726 141.8C379.982 142.547 380.227 143.091 380.462 143.432C380.697 143.752 380.974 143.965 381.294 144.072C381.635 144.157 382.083 144.221 382.638 144.264V145H374.99V144.264C375.715 144.221 376.249 144.147 376.59 144.04C376.953 143.933 377.155 143.709 377.198 143.368C377.241 143.027 377.134 142.504 376.878 141.8L375.054 136.296C374.947 136.403 374.787 136.477 374.574 136.52C374.361 136.541 374.137 136.552 373.902 136.552H369.71C369.241 136.552 368.889 136.605 368.654 136.712C368.419 136.819 368.217 137.107 368.046 137.576L366.542 141.8C366.265 142.611 366.265 143.219 366.542 143.624C366.841 144.008 367.673 144.221 369.038 144.264V145H362.414V144.264C363.097 144.221 363.63 144.008 364.014 143.624C364.419 143.219 364.771 142.611 365.07 141.8L370.734 126.248C370.947 125.693 371.15 125.149 371.342 124.616C371.534 124.083 371.705 123.539 371.854 122.984H373.422C373.571 123.539 373.731 124.083 373.902 124.616C374.094 125.149 374.297 125.693 374.51 126.248L379.726 141.8ZM373.966 135.4C374.243 135.4 374.435 135.368 374.542 135.304C374.649 135.219 374.649 135.048 374.542 134.792L371.918 127.016H371.854L368.782 135.496C368.889 135.453 369.017 135.432 369.166 135.432C369.315 135.411 369.486 135.4 369.678 135.4H373.966Z" fill="#D74250" style="fill:#D74250;fill:color(display-p3 0.8431 0.2588 0.3137);fill-opacity:1;"/>
<path d="M384.293 123.72H401.541V128.712H400.805C400.763 127.965 400.645 127.304 400.453 126.728C400.261 126.152 399.899 125.704 399.365 125.384C398.832 125.043 398.021 124.872 396.933 124.872H394.277V141.8C394.277 142.525 394.352 143.059 394.501 143.4C394.672 143.741 394.971 143.965 395.397 144.072C395.845 144.179 396.485 144.243 397.317 144.264V145H389.317V144.264C389.893 144.243 390.341 144.179 390.661 144.072C391.003 143.965 391.237 143.741 391.365 143.4C391.493 143.059 391.557 142.525 391.557 141.8V124.872H388.869C387.803 124.872 387.003 125.043 386.469 125.384C385.936 125.704 385.573 126.152 385.381 126.728C385.189 127.304 385.072 127.965 385.029 128.712H384.293V123.72Z" fill="#D74250" style="fill:#D74250;fill:color(display-p3 0.8431 0.2588 0.3137);fill-opacity:1;"/>
<path d="M418.28 145.256C418.11 144.765 417.907 144.275 417.672 143.784C417.438 143.272 417.118 142.568 416.712 141.672L410.6 128.072H410.536L409.896 141.8C409.875 142.589 410.056 143.187 410.44 143.592C410.824 143.997 411.667 144.221 412.968 144.264V145H406.152V144.264C406.984 144.221 407.56 143.997 407.88 143.592C408.222 143.187 408.403 142.589 408.424 141.8L409.16 126.92C409.203 126.173 409.15 125.64 409 125.32C408.872 124.979 408.606 124.755 408.2 124.648C407.795 124.541 407.187 124.477 406.376 124.456V123.72H411.816C411.987 124.275 412.168 124.797 412.36 125.288C412.574 125.779 412.819 126.323 413.096 126.92L419.56 141.128H419.624L425.576 126.92C425.811 126.365 426.014 125.832 426.184 125.32C426.376 124.787 426.547 124.253 426.696 123.72H431.752V124.456C431.155 124.477 430.686 124.541 430.344 124.648C430.003 124.755 429.768 124.979 429.64 125.32C429.534 125.64 429.491 126.173 429.512 126.92L430.184 141.8C430.227 142.525 430.323 143.059 430.472 143.4C430.622 143.741 430.888 143.965 431.272 144.072C431.678 144.157 432.232 144.221 432.936 144.264V145H425.512V144.264C426.024 144.221 426.43 144.157 426.728 144.072C427.027 143.965 427.23 143.741 427.336 143.4C427.464 143.059 427.507 142.525 427.464 141.8L426.856 127.848H426.792L420.936 141.672C420.574 142.568 420.286 143.272 420.072 143.784C419.88 144.275 419.72 144.765 419.592 145.256H418.28Z" fill="#D74250" style="fill:#D74250;fill:color(display-p3 0.8431 0.2588 0.3137);fill-opacity:1;"/>
<path d="M453.12 141.8C453.376 142.547 453.621 143.091 453.856 143.432C454.09 143.752 454.368 143.965 454.688 144.072C455.029 144.157 455.477 144.221 456.032 144.264V145H448.384V144.264C449.109 144.221 449.642 144.147 449.984 144.04C450.346 143.933 450.549 143.709 450.592 143.368C450.634 143.027 450.528 142.504 450.272 141.8L448.448 136.296C448.341 136.403 448.181 136.477 447.968 136.52C447.754 136.541 447.53 136.552 447.296 136.552H443.104C442.634 136.552 442.282 136.605 442.048 136.712C441.813 136.819 441.61 137.107 441.44 137.576L439.936 141.8C439.658 142.611 439.658 143.219 439.936 143.624C440.234 144.008 441.066 144.221 442.432 144.264V145H435.808V144.264C436.49 144.221 437.024 144.008 437.408 143.624C437.813 143.219 438.165 142.611 438.464 141.8L444.128 126.248C444.341 125.693 444.544 125.149 444.736 124.616C444.928 124.083 445.098 123.539 445.248 122.984H446.816C446.965 123.539 447.125 124.083 447.296 124.616C447.488 125.149 447.69 125.693 447.904 126.248L453.12 141.8ZM447.36 135.4C447.637 135.4 447.829 135.368 447.936 135.304C448.042 135.219 448.042 135.048 447.936 134.792L445.312 127.016H445.248L442.176 135.496C442.282 135.453 442.41 135.432 442.56 135.432C442.709 135.411 442.88 135.4 443.072 135.4H447.36Z" fill="#D74250" style="fill:#D74250;fill:color(display-p3 0.8431 0.2588 0.3137);fill-opacity:1;"/>
<path d="M477.88 145.256C477.56 144.765 477.208 144.275 476.824 143.784C476.44 143.272 475.918 142.653 475.256 141.928L463.576 128.712H463.512V141.8C463.512 142.589 463.704 143.187 464.088 143.592C464.494 143.997 465.326 144.221 466.584 144.264V145H459.832V144.264C460.707 144.221 461.294 143.997 461.592 143.592C461.912 143.187 462.072 142.589 462.072 141.8V126.92C462.072 126.088 461.827 125.48 461.336 125.096C460.867 124.712 460.099 124.499 459.032 124.456V123.72H463.384C463.704 124.253 464.046 124.776 464.408 125.288C464.792 125.8 465.208 126.301 465.656 126.792L477.464 140.008H477.528V126.92C477.528 126.131 477.326 125.533 476.92 125.128C476.536 124.723 475.715 124.499 474.456 124.456V123.72H481.208V124.456C480.355 124.499 479.768 124.723 479.448 125.128C479.128 125.533 478.968 126.131 478.968 126.92V141.8C478.968 142.397 478.968 142.973 478.968 143.528C478.99 144.061 479.011 144.637 479.032 145.256H477.88Z" fill="#D74250" style="fill:#D74250;fill:color(display-p3 0.8431 0.2588 0.3137);fill-opacity:1;"/>
<path d="M486.275 145V144.264C486.851 144.243 487.298 144.179 487.618 144.072C487.938 143.965 488.162 143.741 488.29 143.4C488.44 143.059 488.514 142.525 488.514 141.8V126.92C488.514 126.173 488.429 125.64 488.259 125.32C488.109 124.979 487.821 124.755 487.395 124.648C486.968 124.541 486.328 124.477 485.475 124.456V123.72H488.514C489.965 123.72 491.245 123.699 492.354 123.656C493.485 123.592 494.445 123.56 495.234 123.56C497.538 123.56 499.544 123.944 501.251 124.712C502.979 125.459 504.323 126.579 505.283 128.072C506.243 129.565 506.723 131.443 506.723 133.704C506.723 135.453 506.403 137.032 505.763 138.44C505.123 139.827 504.248 141.011 503.139 141.992C502.051 142.973 500.813 143.72 499.427 144.232C498.061 144.744 496.632 145 495.139 145H486.275ZM494.178 143.848C497.421 143.848 499.8 142.984 501.315 141.256C502.851 139.507 503.618 137.149 503.618 134.184C503.618 131.901 503.234 130.067 502.466 128.68C501.72 127.293 500.653 126.291 499.267 125.672C497.88 125.032 496.237 124.712 494.339 124.712C493.165 124.712 492.354 124.84 491.906 125.096C491.458 125.331 491.234 125.939 491.234 126.92V141.8C491.234 142.717 491.448 143.293 491.875 143.528C492.323 143.741 493.09 143.848 494.178 143.848Z" fill="#D74250" style="fill:#D74250;fill:color(display-p3 0.8431 0.2588 0.3137);fill-opacity:1;"/>
<path d="M144.684 4.88354C135.765 7.55854 127.333 11.6595 119.611 16.4855C119.604 16.4925 119.589 16.4925 119.581 16.5005C102.038 27.4665 88.1612 42.1715 80.6382 52.4285C69.7982 67.2075 49.7792 87.0185 31.3722 67.9465C28.3572 64.8205 26.6062 60.9635 26.0002 56.7215C23.8642 41.9125 35.6362 22.4195 56.0092 13.0125C94.4352 -4.72346 164.384 -1.02846 144.684 4.88354Z" fill="url(#paint0_linear_591_29)" style=""/>
<path d="M156.163 11.1196C156.053 11.1796 155.953 11.2495 155.853 11.3095C153.943 12.3995 149.323 14.2296 145.803 16.0896C135.333 21.6096 118.123 34.4195 108.593 43.6095C96.7332 55.0495 85.8532 68.7395 76.5932 83.2095C64.5732 101.96 42.7032 117.46 22.7532 98.9796C14.3332 91.1796 11.8932 77.5496 21.9032 62.2296C23.0932 60.4196 24.4532 58.5795 26.0032 56.7195C26.5832 60.8295 28.2432 64.5695 31.0932 67.6496C31.1332 67.6896 31.1732 67.7395 31.2232 67.7795C31.2632 67.8395 31.3232 67.8896 31.3732 67.9496C49.7832 87.0196 69.7932 67.2095 80.6432 52.4296C88.1632 42.1695 102.043 27.4695 119.583 16.4995C119.593 16.4895 119.603 16.4895 119.613 16.4895C131.303 10.7195 140.923 9.15954 147.483 9.11954C152.303 9.08954 155.473 9.87954 156.603 10.4095C156.883 10.5395 156.693 10.7996 156.163 11.1196Z" fill="url(#paint1_linear_591_29)" style=""/>
<path d="M155.849 11.3125C150.831 14.4675 142.902 23.8226 137.168 31.0206C137.161 31.0206 137.161 31.0275 137.153 31.0275C135.254 33.4075 133.599 35.5495 132.365 37.1535C119.832 53.4546 96.1492 90.7125 89.2622 106.121C79.8702 127.144 48.0952 162.437 19.4832 146.897C19.3062 146.801 19.1212 146.697 18.9442 146.594C18.9002 146.572 18.8552 146.542 18.8112 146.52C-10.0008 130.027 -3.11377 88.9035 21.9072 62.2345C11.8942 77.5525 14.3332 91.1795 22.7572 98.9825C42.7092 117.457 64.5742 101.961 76.5902 83.2056C85.8572 68.7365 96.7342 55.0515 108.594 43.6125C118.126 34.4195 135.329 21.6136 145.808 16.0936C149.324 14.2316 153.943 12.3985 155.849 11.3125Z" fill="url(#paint2_linear_591_29)" style=""/>
<path d="M163.993 22.6796C154.403 32.4796 140.993 39.6395 123.493 74.0995C114.323 92.1795 99.3532 133.96 90.7432 146.52C88.5032 149.77 85.7632 153.24 82.4732 156.54C73.0232 166.02 59.0432 174.21 39.5032 172.38C30.0732 171.5 24.2332 166.88 21.2532 160.8C21.2532 160.8 21.2432 160.78 21.2432 160.77C19.4732 157.15 18.7032 153.03 18.8132 148.85C18.8232 148.1 18.8632 147.34 18.9432 146.59C19.1232 146.7 19.3032 146.8 19.4832 146.9C48.0932 162.44 79.8732 127.14 89.2632 106.12C96.1532 90.7096 119.833 53.4596 132.363 37.1496C133.603 35.5496 135.253 33.4095 137.153 31.0295C137.163 31.0295 137.163 31.0196 137.173 31.0196C141.323 28.5796 145.083 26.7196 148.393 25.3196C159.423 20.6696 165.444 21.1896 163.993 22.6796Z" fill="url(#paint3_linear_591_29)" style=""/>
<path d="M163.993 22.6776C163.239 24.1556 157.764 34.2055 152.14 45.9475C152.14 45.9545 152.14 45.9545 152.133 45.9625C147.965 54.6825 143.702 64.3405 141.233 72.1145C136.319 87.5806 122.005 136.855 119.064 145.538C113.566 161.788 105.571 173.434 95.7432 181C95.4102 181.259 95.0782 181.502 94.7452 181.746C84.0602 189.572 71.2912 192.72 57.2362 191.84C39.4202 190.724 25.9262 179.344 21.2492 160.804C24.2342 166.886 30.0722 171.497 39.5012 172.383C59.0392 174.208 73.0272 166.021 82.4712 156.54C85.7672 153.237 88.5082 149.771 90.7402 146.52C99.3562 133.958 114.32 92.1765 123.498 74.1015C140.989 39.6435 154.408 32.4756 163.993 22.6776Z" fill="url(#paint4_linear_591_29)" style=""/>
<path d="M166.165 151.685V151.692C166.15 152.017 166.135 152.35 166.113 152.675C164.842 177.105 149.915 194.322 130.466 196.273C116.234 197.699 102.97 192.859 94.7452 181.745C95.0782 181.501 95.4102 181.257 95.7432 180.999C99.2162 183.253 103.421 184.494 108.468 184.45C134.413 184.221 144.396 155.461 145.601 134.194C149.628 63.2535 164.969 40.1766 166.1 37.4426C165.767 42.4006 160.432 57.4385 159.708 72.1145C159.508 76.1495 159.449 80.0736 159.494 83.8866V83.8936C159.797 107.799 164.364 127.226 165.864 142.331C166.18 145.544 166.276 148.67 166.165 151.685Z" fill="url(#paint5_linear_591_29)" style=""/>
<path d="M187.292 153.414C179.319 156.473 172.275 155.801 166.113 152.675C166.135 152.35 166.151 152.017 166.166 151.692C169.018 152.217 171.871 151.877 174.73 150.606C187.787 144.798 183.723 121.765 178.181 109.572C172.89 97.9325 169.506 80.5015 168.205 59.4265C174.176 85.9625 187.411 95.7536 195.421 106.247C203.069 116.259 213.65 143.32 187.292 153.414Z" fill="url(#paint6_linear_591_29)" style=""/>
<path d="M18.8032 67.7215C17.1282 71.3475 15.9802 75.2275 15.6132 79.1935C15.2932 83.1545 15.8182 87.1985 17.3792 90.8405C18.1652 92.6525 19.1482 94.3806 20.3602 95.9406C21.5842 97.4936 23.0142 98.8566 24.5452 100.124C26.0842 101.369 27.6932 102.536 29.4272 103.483C31.1352 104.477 32.9682 105.237 34.8472 105.814C36.7232 106.411 38.6822 106.717 40.6402 106.818C42.6002 106.927 44.5752 106.801 46.5062 106.425C50.3822 105.724 54.0642 104.139 57.4452 102.105C64.2062 97.9666 69.7882 92.0845 74.3562 85.6196C83.0032 72.2186 92.6222 59.2575 103.839 47.8185C109.4 42.0505 115.521 36.8385 121.857 31.9635C128.223 27.1215 134.785 22.5235 141.66 18.4435C134.87 22.6625 128.412 27.3885 122.158 32.3495C115.89 37.3005 109.865 42.5425 104.392 48.3535C98.8902 54.1285 93.6972 60.1975 88.8532 66.5345C86.4282 69.7015 84.0852 72.9306 81.8222 76.2146C80.6892 77.8556 79.5822 79.5145 78.4882 81.1815C77.4002 82.8456 76.3412 84.5515 75.1732 86.1955C70.5162 92.7305 64.8402 98.6786 57.9152 102.883C54.4522 104.949 50.6662 106.565 46.6612 107.275C42.6732 108.032 38.4852 107.779 34.6222 106.546C32.6932 105.929 30.8182 105.126 29.0822 104.09C27.3182 103.1 25.6922 101.892 24.1422 100.608C22.6082 99.3095 21.1502 97.8886 19.9162 96.2836C18.6942 94.6696 17.7002 92.8925 16.9302 91.0275C15.4112 87.2745 14.9682 83.1586 15.3712 79.1716C15.8222 75.1786 17.0552 71.3125 18.8032 67.7215Z" fill="#F0C83B" style="fill:#F0C83B;fill:color(display-p3 0.9412 0.7843 0.2314);fill-opacity:1;"/>
<path d="M166.114 37.1496C166.114 37.2396 166.104 37.3396 166.104 37.4296V37.4395C164.964 40.1795 149.624 63.2495 145.604 134.19C144.394 155.46 134.414 184.22 108.464 184.45C105.694 184.47 103.174 184.11 100.894 183.39C99.0242 182.82 97.3132 182.01 95.7432 181C105.573 173.43 113.564 161.79 119.064 145.54C122.004 136.85 136.324 87.5795 141.234 72.1095C143.704 64.3395 147.964 54.6796 152.134 45.9595C152.144 45.9495 152.144 45.9496 152.144 45.9496C154.094 43.6896 157.344 41.3295 160.284 39.6095C162.803 38.1595 165.084 37.1696 166.114 37.1496Z" fill="url(#paint7_linear_591_29)" style=""/>
<path d="M97.6432 182.092C100.86 183.683 104.463 184.355 108.022 184.326C111.589 184.307 115.15 183.707 118.482 182.483C125.227 180.123 130.718 175.073 134.604 169.175C138.503 163.233 141.123 156.508 142.816 149.603C143.673 146.148 144.288 142.634 144.69 139.097C145.102 135.569 145.221 131.991 145.479 128.412C146.462 114.116 148.046 99.8465 150.608 85.7385C151.923 78.6915 153.479 71.6875 155.394 64.7795C156.382 61.3345 157.434 57.9075 158.638 54.5325C159.82 51.1505 161.133 47.8145 162.617 44.5565C161.207 47.8475 159.973 51.2095 158.87 54.6115C157.745 58.0065 156.774 61.4506 155.867 64.9086C154.054 71.8256 152.585 78.8295 151.366 85.8745C150.189 92.9275 149.168 100.006 148.353 107.111C147.583 114.22 146.92 121.343 146.476 128.481L146.112 133.833C145.994 135.624 145.86 137.424 145.637 139.209C145.215 142.783 144.579 146.333 143.698 149.823C141.944 156.789 139.309 163.622 135.24 169.603C133.19 172.567 130.833 175.355 128.023 177.636C125.24 179.937 122.071 181.795 118.644 182.942C115.227 184.11 111.612 184.631 108.02 184.569C104.432 184.518 100.823 183.756 97.6432 182.092Z" fill="#F0C83B" style="fill:#F0C83B;fill:color(display-p3 0.9412 0.7843 0.2314);fill-opacity:1;"/>
<path d="M23.9872 164.998C26.9552 168.446 31.1412 170.675 35.5392 171.62C37.7382 172.137 39.9982 172.272 42.2532 172.373C44.5082 172.457 46.7672 172.416 49.0122 172.222C53.5012 171.851 57.9512 170.93 62.1742 169.371C66.3972 167.814 70.3952 165.679 74.0812 163.105C81.3882 157.876 87.5912 151.062 92.1772 143.349C94.4242 139.449 96.3242 135.337 98.2262 131.24C100.102 127.126 101.893 122.97 103.658 118.803L114.181 93.7545C117.728 85.4265 121.281 77.0526 125.677 69.1066C127.864 65.1326 130.111 61.1895 132.572 57.3755C134.998 53.5425 137.595 49.8135 140.407 46.2515C143.219 42.6905 146.238 39.2945 149.456 36.1015C152.661 32.8925 156.1 29.9395 159.494 26.9435C156.154 30.0005 152.769 33.0145 149.629 36.2735C146.476 39.5175 143.529 42.9555 140.792 46.5515C138.035 50.1325 135.481 53.8685 133.104 57.7125C130.691 61.5355 128.492 65.4875 126.353 69.4695C122.081 77.4415 118.522 85.7585 115.018 94.1075L104.575 119.194C102.794 123.36 100.986 127.517 99.0912 131.637C97.1672 135.744 95.2512 139.86 92.9612 143.805C88.2582 151.624 82.0082 158.516 74.5172 163.733C70.7542 166.306 66.6782 168.429 62.3852 169.962C58.0922 171.495 53.5822 172.39 49.0472 172.706C46.7782 172.861 44.5002 172.862 42.2342 172.737C39.9712 172.595 37.6932 172.418 35.4822 171.856C31.0632 170.824 26.8902 168.499 23.9872 164.998Z" fill="#F0C83B" style="fill:#F0C83B;fill:color(display-p3 0.9412 0.7843 0.2314);fill-opacity:1;"/>
<path d="M174.733 150.61C172.863 151.44 170.993 151.87 169.133 151.92C168.143 151.95 167.153 151.87 166.163 151.69V151.68C166.273 148.67 166.183 145.54 165.863 142.33C165.113 134.78 163.593 126.15 162.223 116.41C160.863 106.68 159.643 95.8495 159.493 83.8895C160.893 77.0995 162.433 70.6996 163.823 65.8696C165.353 60.5696 166.703 57.1496 167.493 57.1496C167.863 57.1496 168.103 57.8596 168.203 59.4296C169.503 80.4995 172.893 97.9296 178.183 109.57C183.723 121.76 187.783 144.8 174.733 150.61Z" fill="url(#paint8_linear_591_29)" style=""/>
<path d="M169.217 151.92C173.176 151.644 177.065 149.801 179.41 146.642C181.771 143.483 182.697 139.49 182.948 135.587C183.173 131.652 182.819 127.688 182.09 123.804C181.356 119.919 180.267 116.096 178.831 112.417C178.139 110.58 177.258 108.788 176.536 106.905C175.785 105.044 175.156 103.141 174.544 101.236C173.361 97.4116 172.386 93.5285 171.628 89.6055C170.084 81.7655 169.158 73.8255 168.676 65.8705C169.132 69.8295 169.61 73.7835 170.235 77.7155C170.827 81.6505 171.526 85.5686 172.381 89.4496C173.253 93.3256 174.195 97.1865 175.411 100.962C176.032 102.844 176.668 104.722 177.423 106.551C178.139 108.384 179.036 110.167 179.761 112.055C181.194 115.81 182.267 119.691 182.983 123.64C183.678 127.587 184.063 131.623 183.711 135.644C183.361 139.625 182.326 143.727 179.794 146.943C177.228 150.118 173.19 151.869 169.217 151.92Z" fill="#F0C83B" style="fill:#F0C83B;fill:color(display-p3 0.9412 0.7843 0.2314);fill-opacity:1;"/>
<path d="M147.483 9.11954C138.613 11.7895 130.233 15.8795 122.553 20.6796C122.543 20.6896 122.533 20.6895 122.523 20.6895C104.983 31.6595 91.1032 46.3596 83.5832 56.6196C72.7432 71.3996 52.7232 91.2095 34.3132 72.1395C32.9932 70.7695 31.9432 69.2596 31.0932 67.6496C31.0832 67.6396 31.0832 67.6195 31.0732 67.6095C31.1232 67.6695 31.1732 67.7195 31.2232 67.7795C31.2632 67.8395 31.3232 67.8896 31.3732 67.9496C49.7832 87.0196 69.7932 67.2095 80.6432 52.4296C88.1632 42.1695 102.043 27.4695 119.583 16.4995C119.593 16.4895 119.603 16.4895 119.613 16.4895C131.303 10.7195 140.923 9.15954 147.483 9.11954Z" fill="url(#paint9_linear_591_29)" style=""/>
<path d="M148.393 25.3196C145.493 28.5696 142.604 32.0895 140.114 35.2095C140.104 35.2095 140.104 35.2195 140.094 35.2195C138.194 37.5995 136.544 39.7395 135.314 41.3495C122.774 57.6495 99.0942 94.9095 92.2042 110.31C82.8142 131.34 51.0342 166.63 22.4242 151.09C22.2442 150.99 22.0642 150.89 21.8842 150.79C21.8442 150.76 21.7942 150.73 21.7542 150.71C20.7342 150.12 19.7542 149.5 18.8142 148.85C18.8242 148.1 18.8642 147.34 18.9442 146.59C19.1242 146.7 19.3042 146.8 19.4842 146.9C48.0942 162.44 79.8732 127.14 89.2632 106.12C96.1532 90.7096 119.833 53.4596 132.363 37.1496C133.603 35.5496 135.254 33.4095 137.154 31.0295C137.164 31.0295 137.163 31.0196 137.173 31.0196C141.323 28.5796 145.083 26.7196 148.393 25.3196Z" fill="url(#paint10_linear_591_29)" style=""/>
<path d="M160.283 39.6095C158.663 42.7895 156.883 46.3795 155.083 50.1395C155.083 50.1495 155.083 50.1495 155.073 50.1595C150.903 58.8795 146.643 68.5295 144.173 76.3095C139.263 91.7695 124.943 141.05 122.003 149.73C116.933 164.74 109.713 175.83 100.893 183.39C99.0232 182.82 97.3132 182.01 95.7432 181C105.573 173.43 113.563 161.79 119.063 145.54C122.003 136.85 136.324 87.5795 141.234 72.1095C143.704 64.3395 147.963 54.6795 152.133 45.9595C152.143 45.9495 152.144 45.9496 152.144 45.9496C154.094 43.6896 157.343 41.3295 160.283 39.6095Z" fill="url(#paint11_linear_591_29)" style=""/>
<path d="M24.4782 165.539C24.3832 165.358 24.2822 165.181 24.1922 164.997C24.2202 165.107 24.2522 165.213 24.2802 165.322C24.3452 165.395 24.4122 165.466 24.4782 165.539Z" fill="url(#paint12_linear_591_29)" style=""/>
<path d="M166.163 151.68C166.273 148.67 166.183 145.54 165.863 142.33C165.113 134.78 163.593 126.15 162.223 116.41C160.863 106.68 159.643 95.8495 159.493 83.8895C160.893 77.0995 162.433 70.6996 163.823 65.8696C163.263 69.2696 162.823 72.7995 162.653 76.3095C162.453 80.3395 162.393 84.2695 162.433 88.0795V88.0896C162.743 111.99 167.303 131.42 168.803 146.52C168.983 148.35 169.093 150.15 169.133 151.92C168.143 151.95 167.153 151.87 166.163 151.69V151.68Z" fill="url(#paint13_linear_591_29)" style=""/>
<defs>
<linearGradient id="paint0_linear_591_29" x1="153.976" y1="-28.4328" x2="211.236" y2="131.633" gradientUnits="userSpaceOnUse">
<stop stop-color="#F0C83B" style="stop-color:#F0C83B;stop-color:color(display-p3 0.9412 0.7843 0.2314);stop-opacity:1;"/>
<stop offset="0.5201" stop-color="#E8A93E" style="stop-color:#E8A93E;stop-color:color(display-p3 0.9098 0.6627 0.2431);stop-opacity:1;"/>
<stop offset="1" stop-color="#E07935" style="stop-color:#E07935;stop-color:color(display-p3 0.8784 0.4745 0.2078);stop-opacity:1;"/>
</linearGradient>
<linearGradient id="paint1_linear_591_29" x1="401.963" y1="-22.2123" x2="268.971" y2="212.85" gradientUnits="userSpaceOnUse">
<stop stop-color="#251665" style="stop-color:#251665;stop-color:color(display-p3 0.1451 0.0863 0.3961);stop-opacity:1;"/>
<stop offset="0.505" stop-color="#A500AA" style="stop-color:#A500AA;stop-color:color(display-p3 0.6471 0.0000 0.6667);stop-opacity:1;"/>
<stop offset="1" stop-color="#D74250" style="stop-color:#D74250;stop-color:color(display-p3 0.8431 0.2588 0.3137);stop-opacity:1;"/>
</linearGradient>
<linearGradient id="paint2_linear_591_29" x1="96.5418" y1="30.8513" x2="174.726" y2="174.853" gradientUnits="userSpaceOnUse">
<stop stop-color="#F0C83B" style="stop-color:#F0C83B;stop-color:color(display-p3 0.9412 0.7843 0.2314);stop-opacity:1;"/>
<stop offset="0.5201" stop-color="#E8A93E" style="stop-color:#E8A93E;stop-color:color(display-p3 0.9098 0.6627 0.2431);stop-opacity:1;"/>
<stop offset="1" stop-color="#E07935" style="stop-color:#E07935;stop-color:color(display-p3 0.8784 0.4745 0.2078);stop-opacity:1;"/>
</linearGradient>
<linearGradient id="paint3_linear_591_29" x1="55.9613" y1="201.354" x2="112.637" y2="-24.9802" gradientUnits="userSpaceOnUse">
<stop stop-color="#D74250" style="stop-color:#D74250;stop-color:color(display-p3 0.8431 0.2588 0.3137);stop-opacity:1;"/>
<stop offset="0.495" stop-color="#A500AA" style="stop-color:#A500AA;stop-color:color(display-p3 0.6471 0.0000 0.6667);stop-opacity:1;"/>
<stop offset="1" stop-color="#251665" style="stop-color:#251665;stop-color:color(display-p3 0.1451 0.0863 0.3961);stop-opacity:1;"/>
</linearGradient>
<linearGradient id="paint4_linear_591_29" x1="198.707" y1="82.5797" x2="267.199" y2="175.931" gradientUnits="userSpaceOnUse">
<stop stop-color="#F0C83B" style="stop-color:#F0C83B;stop-color:color(display-p3 0.9412 0.7843 0.2314);stop-opacity:1;"/>
<stop offset="0.5201" stop-color="#E8A93E" style="stop-color:#E8A93E;stop-color:color(display-p3 0.9098 0.6627 0.2431);stop-opacity:1;"/>
<stop offset="1" stop-color="#E07935" style="stop-color:#E07935;stop-color:color(display-p3 0.8784 0.4745 0.2078);stop-opacity:1;"/>
</linearGradient>
<linearGradient id="paint5_linear_591_29" x1="122.247" y1="86.0776" x2="214.585" y2="257.691" gradientUnits="userSpaceOnUse">
<stop stop-color="#F0C83B" style="stop-color:#F0C83B;stop-color:color(display-p3 0.9412 0.7843 0.2314);stop-opacity:1;"/>
<stop offset="0.5201" stop-color="#E8A93E" style="stop-color:#E8A93E;stop-color:color(display-p3 0.9098 0.6627 0.2431);stop-opacity:1;"/>
<stop offset="1" stop-color="#E07935" style="stop-color:#E07935;stop-color:color(display-p3 0.8784 0.4745 0.2078);stop-opacity:1;"/>
</linearGradient>
<linearGradient id="paint6_linear_591_29" x1="-208.247" y1="95.5916" x2="280.281" y2="284.897" gradientUnits="userSpaceOnUse">
<stop stop-color="#F0C83B" style="stop-color:#F0C83B;stop-color:color(display-p3 0.9412 0.7843 0.2314);stop-opacity:1;"/>
<stop offset="0.5201" stop-color="#E8A93E" style="stop-color:#E8A93E;stop-color:color(display-p3 0.9098 0.6627 0.2431);stop-opacity:1;"/>
<stop offset="1" stop-color="#E07935" style="stop-color:#E07935;stop-color:color(display-p3 0.8784 0.4745 0.2078);stop-opacity:1;"/>
</linearGradient>
<linearGradient id="paint7_linear_591_29" x1="46.7161" y1="216.379" x2="63.5916" y2="15.8333" gradientUnits="userSpaceOnUse">
<stop stop-color="#D74250" style="stop-color:#D74250;stop-color:color(display-p3 0.8431 0.2588 0.3137);stop-opacity:1;"/>
<stop offset="0.495" stop-color="#A500AA" style="stop-color:#A500AA;stop-color:color(display-p3 0.6471 0.0000 0.6667);stop-opacity:1;"/>
<stop offset="1" stop-color="#251665" style="stop-color:#251665;stop-color:color(display-p3 0.1451 0.0863 0.3961);stop-opacity:1;"/>
</linearGradient>
<linearGradient id="paint8_linear_591_29" x1="-179.71" y1="237.42" x2="-174.554" y2="74.9308" gradientUnits="userSpaceOnUse">
<stop stop-color="#D74250" style="stop-color:#D74250;stop-color:color(display-p3 0.8431 0.2588 0.3137);stop-opacity:1;"/>
<stop offset="0.495" stop-color="#A500AA" style="stop-color:#A500AA;stop-color:color(display-p3 0.6471 0.0000 0.6667);stop-opacity:1;"/>
<stop offset="1" stop-color="#251665" style="stop-color:#251665;stop-color:color(display-p3 0.1451 0.0863 0.3961);stop-opacity:1;"/>
</linearGradient>
<linearGradient id="paint9_linear_591_29" x1="49.2458" y1="199.375" x2="230.485" y2="-59.4701" gradientUnits="userSpaceOnUse">
<stop stop-color="#D74250" style="stop-color:#D74250;stop-color:color(display-p3 0.8431 0.2588 0.3137);stop-opacity:1;"/>
<stop offset="0.495" stop-color="#A500AA" style="stop-color:#A500AA;stop-color:color(display-p3 0.6471 0.0000 0.6667);stop-opacity:1;"/>
<stop offset="1" stop-color="#251665" style="stop-color:#251665;stop-color:color(display-p3 0.1451 0.0863 0.3961);stop-opacity:1;"/>
</linearGradient>
<linearGradient id="paint10_linear_591_29" x1="98.2529" y1="183.25" x2="160.676" y2="-46.6697" gradientUnits="userSpaceOnUse">
<stop stop-color="#D74250" style="stop-color:#D74250;stop-color:color(display-p3 0.8431 0.2588 0.3137);stop-opacity:1;"/>
<stop offset="0.495" stop-color="#A500AA" style="stop-color:#A500AA;stop-color:color(display-p3 0.6471 0.0000 0.6667);stop-opacity:1;"/>
<stop offset="1" stop-color="#251665" style="stop-color:#251665;stop-color:color(display-p3 0.1451 0.0863 0.3961);stop-opacity:1;"/>
</linearGradient>
<linearGradient id="paint11_linear_591_29" x1="71.8323" y1="181.394" x2="85.1754" y2="4.29681" gradientUnits="userSpaceOnUse">
<stop stop-color="#D74250" style="stop-color:#D74250;stop-color:color(display-p3 0.8431 0.2588 0.3137);stop-opacity:1;"/>
<stop offset="0.495" stop-color="#A500AA" style="stop-color:#A500AA;stop-color:color(display-p3 0.6471 0.0000 0.6667);stop-opacity:1;"/>
<stop offset="1" stop-color="#251665" style="stop-color:#251665;stop-color:color(display-p3 0.1451 0.0863 0.3961);stop-opacity:1;"/>
</linearGradient>
<linearGradient id="paint12_linear_591_29" x1="18212.4" y1="-8393.41" x2="22364.5" y2="-55272.8" gradientUnits="userSpaceOnUse">
<stop stop-color="#D74250" style="stop-color:#D74250;stop-color:color(display-p3 0.8431 0.2588 0.3137);stop-opacity:1;"/>
<stop offset="0.495" stop-color="#A500AA" style="stop-color:#A500AA;stop-color:color(display-p3 0.6471 0.0000 0.6667);stop-opacity:1;"/>
<stop offset="1" stop-color="#251665" style="stop-color:#251665;stop-color:color(display-p3 0.1451 0.0863 0.3961);stop-opacity:1;"/>
</linearGradient>
<linearGradient id="paint13_linear_591_29" x1="164.101" y1="144.229" x2="164.601" y2="82.2294" gradientUnits="userSpaceOnUse">
<stop stop-color="#D74250" style="stop-color:#D74250;stop-color:color(display-p3 0.8431 0.2588 0.3137);stop-opacity:1;"/>
<stop offset="0.495" stop-color="#A500AA" style="stop-color:#A500AA;stop-color:color(display-p3 0.6471 0.0000 0.6667);stop-opacity:1;"/>
<stop offset="1" stop-color="#251665" style="stop-color:#251665;stop-color:color(display-p3 0.1451 0.0863 0.3961);stop-opacity:1;"/>
</linearGradient>
</defs>
</svg>
